name ./resultDataOpenSim/trcMotMarkerGrf/sub09/grf-05-01.mot
datacolumns 19
datarows 22
range 1.56000000 1.64400000
endheader

                time	     ground_force_vx	     ground_force_vy	     ground_force_vz	     ground_force_px	     ground_force_py	     ground_force_pz	   l_ground_force_vx	   l_ground_force_vy	   l_ground_force_vz	   l_ground_force_px	   l_ground_force_py	   l_ground_force_pz	     ground_torque_x	     ground_torque_y	     ground_torque_z	   l_ground_torque_x	   l_ground_torque_y	   l_ground_torque_z	
          1.56000000	        -27.66018369	        459.49224014	        -14.94957007	          1.01232007	          0.00000000	          0.12140481	          0.00000000	          0.00000000	          0.00000000	          0.00000000	          0.00000000	          0.00000000	          0.00000000	          0.37174130	          0.00000000	          0.00000000	          0.00000000	          0.00000000	
          1.56400000	        -25.45491598	        457.63715914	        -15.98145819	          1.01260815	          0.00000000	          0.12143914	          0.00000000	          0.00000000	          0.00000000	          0.00000000	          0.00000000	          0.00000000	          0.00000000	          0.27165884	          0.00000000	          0.00000000	          0.00000000	          0.00000000	
          1.56800000	        -24.81478539	        456.23364555	        -15.94020828	          1.01306704	          0.00000000	          0.12141383	          0.00000000	          0.00000000	          0.00000000	          0.00000000	          0.00000000	          0.00000000	          0.00000000	          0.31037390	          0.00000000	          0.00000000	          0.00000000	          0.00000000	
          1.57200000	        -25.46030849	        455.30413340	        -14.80721682	          1.01366213	          0.00000000	          0.12132661	          0.00000000	          0.00000000	          0.00000000	          0.00000000	          0.00000000	          0.00000000	          0.00000000	          0.47756137	          0.00000000	          0.00000000	          0.00000000	          0.00000000	
          1.57600000	        -26.79195754	        454.83048462	        -12.74765577	          1.01432216	          0.00000000	          0.12118342	          0.00000000	          0.00000000	          0.00000000	          0.00000000	          0.00000000	          0.00000000	          0.00000000	          0.73742281	          0.00000000	          0.00000000	          0.00000000	          0.00000000	
          1.58000000	        -28.05744274	        454.76736841	        -10.08365706	          1.01495505	          0.00000000	          0.12099569	          0.00000000	          0.00000000	          0.00000000	          0.00000000	          0.00000000	          0.00000000	          0.00000000	          1.03738080	          0.00000000	          0.00000000	          0.00000000	          0.00000000	
          1.58400000	        -28.55081544	        455.04785366	         -7.24445818	          1.01546638	          0.00000000	          0.12079110	          0.00000000	          0.00000000	          0.00000000	          0.00000000	          0.00000000	          0.00000000	          0.00000000	          1.31915864	          0.00000000	          0.00000000	          0.00000000	          0.00000000	
          1.58800000	        -27.79427794	        455.59425748	         -4.68822765	          1.01578189	          0.00000000	          0.12060403	          0.00000000	          0.00000000	          0.00000000	          0.00000000	          0.00000000	          0.00000000	          0.00000000	          1.53066432	          0.00000000	          0.00000000	          0.00000000	          0.00000000	
          1.59200000	        -25.64952714	        456.34371183	         -2.81925983	          1.01589207	          0.00000000	          0.12045853	          0.00000000	          0.00000000	          0.00000000	          0.00000000	          0.00000000	          0.00000000	          0.00000000	          1.63694287	          0.00000000	          0.00000000	          0.00000000	          0.00000000	
          1.59600000	        -22.33575134	        457.26958784	         -1.91491635	          1.01583247	          0.00000000	          0.12036539	          0.00000000	          0.00000000	          0.00000000	          0.00000000	          0.00000000	          0.00000000	          0.00000000	          1.62791354	          0.00000000	          0.00000000	          0.00000000	          0.00000000	
          1.60000000	        -18.36032163	        458.37575442	         -2.06123172	          1.01566151	          0.00000000	          0.12032152	          0.00000000	          0.00000000	          0.00000000	          0.00000000	          0.00000000	          0.00000000	          0.00000000	          1.52044628	          0.00000000	          0.00000000	          0.00000000	          0.00000000	
          1.60400000	        -14.38439345	        459.67560410	         -3.12425423	          1.01548477	          0.00000000	          0.12031639	          0.00000000	          0.00000000	          0.00000000	          0.00000000	          0.00000000	          0.00000000	          0.00000000	          1.35339083	          0.00000000	          0.00000000	          0.00000000	          0.00000000	
          1.60800000	        -11.04938043	        461.19174984	         -4.78377630	          1.01540176	          0.00000000	          0.12033245	          0.00000000	          0.00000000	          0.00000000	          0.00000000	          0.00000000	          0.00000000	          0.00000000	          1.17656295	          0.00000000	          0.00000000	          0.00000000	          0.00000000	
          1.61200000	         -8.80275003	        462.97369651	         -6.60956987	          1.01548135	          0.00000000	          0.12034483	          0.00000000	          0.00000000	          0.00000000	          0.00000000	          0.00000000	          0.00000000	          0.00000000	          1.03733341	          0.00000000	          0.00000000	          0.00000000	          0.00000000	
          1.61600000	         -7.78442500	        465.08712617	         -8.15218004	          1.01572918	          0.00000000	          0.12031296	          0.00000000	          0.00000000	          0.00000000	          0.00000000	          0.00000000	          0.00000000	          0.00000000	          0.96951913	          0.00000000	          0.00000000	          0.00000000	          0.00000000	
          1.62000000	         -7.80983430	        467.57068816	         -9.03192618	          1.01609258	          0.00000000	          0.12020966	          0.00000000	          0.00000000	          0.00000000	          0.00000000	          0.00000000	          0.00000000	          0.00000000	          0.98783189	          0.00000000	          0.00000000	          0.00000000	          0.00000000	
          1.62400000	         -8.43859897	        470.41380454	         -9.00333641	          1.01650879	          0.00000000	          0.12003583	          0.00000000	          0.00000000	          0.00000000	          0.00000000	          0.00000000	          0.00000000	          0.00000000	          1.08826318	          0.00000000	          0.00000000	          0.00000000	          0.00000000	
          1.62800000	         -9.10144321	        473.57027511	         -7.99248478	          1.01689334	          0.00000000	          0.11980686	          0.00000000	          0.00000000	          0.00000000	          0.00000000	          0.00000000	          0.00000000	          0.00000000	          1.25245087	          0.00000000	          0.00000000	          0.00000000	          0.00000000	
          1.63200000	         -9.25383758	        476.97493536	         -6.11685570	          1.01716548	          0.00000000	          0.11954130	          0.00000000	          0.00000000	          0.00000000	          0.00000000	          0.00000000	          0.00000000	          0.00000000	          1.45349103	          0.00000000	          0.00000000	          0.00000000	          0.00000000	
          1.63600000	         -8.51750134	        480.55590408	         -3.67116184	          1.01728755	          0.00000000	          0.11926703	          0.00000000	          0.00000000	          0.00000000	          0.00000000	          0.00000000	          0.00000000	          0.00000000	          1.66155922	          0.00000000	          0.00000000	          0.00000000	          0.00000000	
          1.64000000	         -6.76871691	        484.24721216	         -1.07084685	          1.01725670	          0.00000000	          0.11901037	          0.00000000	          0.00000000	          0.00000000	          0.00000000	          0.00000000	          0.00000000	          0.00000000	          1.84889088	          0.00000000	          0.00000000	          0.00000000	          0.00000000	
          1.64400000	         -4.14957688	        487.99369574	          1.22184215	          1.01710042	          0.00000000	          0.11879697	          0.00000000	          0.00000000	          0.00000000	          0.00000000	          0.00000000	          0.00000000	          0.00000000	          1.99415978	          0.00000000	          0.00000000	          0.00000000	          0.00000000	
